<svg id="TestLogo" xmlns="http://www.w3.org/2000/svg" xmlns:xlink="http://www.w3.org/1999/xlink" width="auto" height="48" viewBox="0 0 210.582 48">
  <defs>
    <clipPath id="clip-path">
      <rect id="Rectangle_17" data-name="Rectangle 17" width="30.422" height="13.998" fill="none"/>
    </clipPath>
  </defs>
  <g id="Icon">
    <path id="Path_3" data-name="Path 3" d="M50.527,68.4l.049-15.694A3.644,3.644,0,0,0,49.55,50.09L37.19,40.26l.039,15.758a3.1,3.1,0,0,0,1.051,2.639l12.242,9.736Z" transform="translate(-18.847 -20.403)" fill="#006aac"/>
    <path id="Path_4" data-name="Path 4" d="M39.32,33.789,54.6,30.213a3.639,3.639,0,0,1,2.782.409l12.36,9.83L54.378,43.959a3.1,3.1,0,0,1-2.811-.434L39.325,33.789Z" transform="translate(-19.927 -15.254)" fill="#01f0d0"/>
    <g id="Group_11" data-name="Group 11" transform="translate(0 19.122)" opacity="0.45">
      <g id="Group_10" data-name="Group 10">
        <g id="Group_6" data-name="Group 6" clip-path="url(#clip-path)">
          <g id="Group_9" data-name="Group 9" transform="translate(0 -0.01)">
            <path id="Path_5" data-name="Path 5" d="M0,42.439l15.28-3.576a3.639,3.639,0,0,1,2.782.409l12.36,9.83L15.058,52.609a3.1,3.1,0,0,1-2.811-.434Z" transform="translate(0 -38.75)" fill="#6dc2ee"/>
          </g>
        </g>
      </g>
    </g>
    <path id="Path_6" data-name="Path 6" d="M50.107,28.143l.049-15.694A3.644,3.644,0,0,0,49.13,9.83L36.77,0l.039,15.758A3.089,3.089,0,0,0,37.865,18.4l12.247,9.741Z" transform="translate(-18.634)" fill="#0bd984"/>
    <rect id="Rectangle_5" data-name="Rectangle 5" width="49.815" height="48" fill="none"/>
  </g>

</svg>
