<svg width="50" height="48" viewBox="0 0 50 48" fill="none" xmlns="http://www.w3.org/2000/svg">
<path d="M31.68 47.997L31.729 32.303C31.7396 31.8207 31.6544 31.3412 31.4783 30.8921C31.3022 30.4431 31.0386 30.0334 30.703 29.687L18.343 19.857L18.382 35.615C18.3342 36.1068 18.4046 36.6029 18.5874 37.062C18.7703 37.521 19.0602 37.9297 19.433 38.254L31.675 47.99L31.68 47.997Z" fill="#006AAC"/>
<path d="M19.393 18.535L34.673 14.959C35.1407 14.8392 35.6275 14.8137 36.1051 14.8839C36.5827 14.9541 37.0416 15.1187 37.455 15.368L49.815 25.198L34.451 28.705C33.9818 28.8623 33.4818 28.9049 32.9928 28.8294C32.5038 28.7539 32.0399 28.5624 31.64 28.271L19.398 18.535H19.393Z" fill="#01F0D0"/>
<g opacity="0.45">
<mask id="mask0_1_78" style="mask-type:luminance" maskUnits="userSpaceOnUse" x="0" y="19" width="31" height="15">
<path d="M30.422 19.122H0V33.12H30.422V19.122Z" fill="white"/>
</mask>
<g mask="url(#mask0_1_78)">
<path d="M0 22.801L15.28 19.225C15.7477 19.1052 16.2345 19.0797 16.7121 19.1499C17.1897 19.2201 17.6486 19.3847 18.062 19.634L30.422 29.464L15.058 32.971C14.5888 33.1282 14.0888 33.1709 13.5998 33.0954C13.1108 33.0199 12.6469 32.8284 12.247 32.537L0 22.801Z" fill="#6DC2EE"/>
</g>
</g>
<path d="M31.473 28.143L31.522 12.449C31.533 11.9663 31.448 11.4861 31.2719 11.0365C31.0957 10.5869 30.832 10.1768 30.496 9.83L18.136 0L18.175 15.758C18.1264 16.2508 18.1969 16.748 18.3807 17.2078C18.5645 17.6676 18.8561 18.0765 19.231 18.4L31.478 28.141L31.473 28.143Z" fill="#0BD984"/>
</svg>
